<svg width="327" height="152" viewBox="0 0 327 152" fill="none" xmlns="http://www.w3.org/2000/svg">
<path d="M39.209 129.846C32.1191 129.846 25.6738 128.439 19.873 125.627C14.1309 122.814 9.50195 118.566 5.98633 112.883C2.5293 107.199 0.625 100.08 0.273438 91.5254L0.449219 90.998H17.0605C17.2949 99.6113 19.2578 105.939 22.9492 109.982C26.6992 114.025 32.0312 116.047 38.9453 116.047C43.8086 116.047 47.793 115.021 50.8984 112.971C54.0039 110.861 56.2891 107.99 57.7539 104.357C59.2773 100.666 60.0391 96.4473 60.0391 91.7012V13.6543L42.9883 11.3691V0.03125H91.6797V11.1934L77.3535 13.6543V91.7012C77.3535 99.3184 75.8887 105.998 72.959 111.74C70.0879 117.482 65.8105 121.936 60.127 125.1C54.502 128.264 47.5293 129.846 39.209 129.846ZM155.84 151.73V0.03125H169.639V151.73H155.84ZM234.326 128V116.926L248.652 114.465V13.6543L234.326 11.1934V0.03125H248.652H265.967H280.293V11.1934L265.967 13.6543V114.729H311.23L313.252 94.5137H326.523V128H234.326Z" fill="white"/>
</svg>
